<svg width="30" height="24" viewBox="0 0 30 24" fill="none" xmlns="http://www.w3.org/2000/svg">
<path d="M4.79048 6.65434C3.7731 8.81882 3.39644 11.0663 3.70791 13.4296C4.01938 15.793 4.99857 17.8587 6.54735 19.6854C6.4657 19.6979 6.44068 19.6459 6.40907 19.6143C5.95219 19.1618 5.53901 18.6673 5.17504 18.1372C3.65527 15.9035 2.97419 13.2044 3.25223 10.5171C3.39668 9.12534 3.80806 7.77447 4.46386 6.53844C4.47835 6.51144 4.49218 6.48313 4.5093 6.44955C3.62428 5.66988 3.16333 4.69991 3.19625 3.5212C3.22457 2.5216 3.61572 1.67148 4.3427 0.984007C4.71324 0.63772 5.15182 0.372389 5.63053 0.204911C6.10924 0.0374334 6.61758 -0.0285212 7.12317 0.0112477C7.62877 0.0510166 8.12055 0.195637 8.56718 0.4359C9.01382 0.676163 9.40553 1.0068 9.71737 1.40676C9.75622 1.38964 9.79968 1.3745 9.84117 1.35408C10.9723 0.784054 12.1901 0.405761 13.4451 0.234635C17.057 -0.242776 20.2237 0.744971 22.9157 3.19788C24.4901 4.63011 25.5589 6.39094 26.1449 8.4415C26.503 9.68447 26.6453 10.9796 26.5657 12.2707C26.4419 14.2877 25.8466 16.1558 24.7219 17.8422C24.6956 17.8811 24.6686 17.9199 24.6396 17.9581C24.635 17.9647 24.6225 17.966 24.579 17.9838C24.6133 17.918 24.6343 17.8732 24.658 17.831C25.1687 16.9331 25.5605 15.9727 25.8236 14.9738C26.0867 14.0015 26.2173 12.9981 26.2121 11.9908C26.1818 8.90575 25.1229 6.22368 23.0026 3.97886C21.2872 2.16404 19.1833 1.04986 16.7284 0.600102C15.8103 0.432136 14.875 0.377511 13.9436 0.437453C12.5578 0.52252 11.201 0.871172 9.94587 1.46471C9.90372 1.48447 9.8629 1.50817 9.80561 1.53846C10.4108 2.44653 10.6077 3.43033 10.3607 4.49117C10.229 5.03592 9.97335 5.54291 9.61355 5.9726C9.25376 6.4023 8.79959 6.7431 8.28645 6.96844C7.91518 7.13209 7.51886 7.23161 7.11432 7.26279C6.70925 7.29439 6.30174 7.25812 5.90861 7.15546C5.51186 7.04829 5.1345 6.87917 4.79048 6.65434ZM9.30251 1.63329C8.42737 0.662001 7.37772 0.281389 6.1167 0.546105C4.88267 0.805553 3.91929 1.81832 3.70462 3.0991C3.51168 4.24884 3.88109 5.22013 4.73978 6.03337C5.87766 4.16456 7.39616 2.71652 9.30251 1.63395V1.63329ZM9.37561 1.7584C7.47386 2.8199 6.03636 4.31733 5.01174 6.22105C5.99948 6.98622 7.80443 7.12977 9.05623 5.89641C10.287 4.68411 10.2349 2.86797 9.37561 1.75906V1.7584Z" fill="white"/>
<path d="M24.7206 15.8655C24.7184 16.434 24.5474 16.989 24.2294 17.4602C23.9114 17.9314 23.4607 18.2977 22.9343 18.5124C22.408 18.7272 21.8297 18.7809 21.2728 18.6667C20.716 18.5525 20.2055 18.2756 19.8062 17.871C19.4068 17.4664 19.1366 16.9524 19.0297 16.394C18.9228 15.8357 18.9841 15.2582 19.2058 14.7347C19.4275 14.2112 19.7995 13.7653 20.2749 13.4535C20.7502 13.1417 21.3074 12.9781 21.8759 12.9833C22.6343 12.9916 23.3587 13.2991 23.8914 13.8389C24.4242 14.3787 24.7222 15.1071 24.7206 15.8655Z" fill="white"/>
<path d="M8.0225 21.1682C8.0707 21.1963 8.11955 21.223 8.16647 21.2524C9.34549 22.0027 10.6165 22.5753 11.9431 22.9539C13.2322 23.3172 14.5646 23.4761 15.8972 23.4255C16.924 23.393 17.932 23.1247 18.8525 22.6391C20.2832 21.8896 21.6297 20.9964 22.8477 19.8979C22.883 19.8665 22.9203 19.837 22.9576 19.8083C22.964 19.8035 22.9756 19.8083 23 19.8083C22.9857 19.8417 22.9691 19.8739 22.9505 19.9048C21.9581 21.2668 20.717 22.2729 19.179 22.83C18.0316 23.2505 16.8473 23.5461 15.644 23.7122C12.9715 24.0716 10.5529 23.4056 8.42806 21.6117C8.30337 21.5063 8.18704 21.39 8.06749 21.2777C8.04364 21.2517 8.02111 21.2242 8 21.1956L8.0225 21.1682Z" fill="white"/>
<path d="M2.1438 18.6697C2.35625 18.6714 2.56344 18.736 2.73918 18.8554C2.91491 18.9748 3.05131 19.1436 3.13114 19.3405C3.21097 19.5374 3.23065 19.7536 3.18768 19.9616C3.14472 20.1697 3.04104 20.3604 2.88976 20.5096C2.73847 20.6587 2.54636 20.7597 2.3377 20.7997C2.12904 20.8398 1.9132 20.8171 1.71745 20.7345C1.52169 20.6519 1.35482 20.5131 1.2379 20.3357C1.12098 20.1583 1.05927 19.9502 1.06057 19.7378C1.06318 19.4527 1.17862 19.1802 1.38163 18.9801C1.58465 18.7799 1.8587 18.6683 2.1438 18.6697Z" fill="white"/>
<path d="M1 21.8062L29 18.8062" stroke="white" stroke-width="0.2" stroke-linecap="round"/>
</svg>
