<svg width="20" height="20" viewBox="0 0 20 20" fill="none" xmlns="http://www.w3.org/2000/svg">
<path d="M19.2469 15.2077L19.2083 0.351385L4.35205 0.312838C4.19727 0.291882 4.03979 0.304426 3.89028 0.349621C3.74077 0.394816 3.60271 0.471608 3.48546 0.574796C3.36821 0.677984 3.2745 0.80516 3.21067 0.947715C3.14684 1.09027 3.11438 1.24487 3.1155 1.40106C3.11661 1.55725 3.15127 1.71137 3.21713 1.853C3.28299 1.99463 3.37851 2.12045 3.49723 2.22196C3.61594 2.32346 3.75508 2.39827 3.90522 2.44132C4.05536 2.48438 4.213 2.49467 4.36747 2.47151L15.5 2.51777L0.751693 17.2661C0.547224 17.4706 0.432353 17.7479 0.432353 18.0371C0.432353 18.3262 0.547223 18.6035 0.751692 18.808C0.956162 19.0125 1.23348 19.1274 1.52265 19.1274C1.81181 19.1274 2.08913 19.0125 2.2936 18.808L17.0419 4.05967L17.0882 15.1922C17.0892 15.4816 17.2051 15.7586 17.4104 15.9625C17.6157 16.1664 17.8936 16.2803 18.1829 16.2793C18.4723 16.2783 18.7493 16.1623 18.9532 15.957C19.1571 15.7517 19.271 15.4739 19.27 15.1845L19.2469 15.2077Z" fill="white"/>
</svg>
